<svg width="261" height="21" viewBox="0 0 261 21" fill="none" xmlns="http://www.w3.org/2000/svg">
<path d="M0 21V0H15V3H18V6H21V15H18V18H15V21H0ZM6 18H12V15H15V6H12V3H6V18ZM24 21V6H27V3H30V0H39V3H42V6H45V21H39V15H30V21H24ZM30 12H39V6H36V3H33V6H30V12ZM51 21V18H57V3H51V0H69V3H63V18H69V21H51ZM75 21V0H81V18H93V21H75ZM105 21V12H102V9H99V0H105V9H111V0H117V9H114V12H111V21H105ZM144 21V0H162V3H165V9H162V12H165V18H162V21H144ZM150 9H159V3H150V9ZM150 18H159V12H150V18ZM168 21V0H186V3H189V12H183V15H186V18H189V21H180V18H177V15H174V21H168ZM174 12H180V9H183V3H174V12ZM195 21V18H192V0H198V18H207V0H213V18H210V21H195ZM219 21V18H225V3H219V0H237V3H231V18H237V21H219ZM240 21V0H246V3H249V6H252V9H255V0H261V21H255V15H252V12H249V9H246V21H240Z" fill="black"/>
<path d="M0 21H-3V24H0V21ZM0 0V-3H-3V0H0ZM15 0H18V-3H15V0ZM15 3H12V6H15V3ZM18 3H21V-1.43051e-06H18V3ZM18 6H15V9H18V6ZM21 6H24V3H21V6ZM21 15V18H24V15H21ZM18 15V12H15V15H18ZM18 18V21H21V18H18ZM15 18V15H12V18H15ZM15 21V24H18V21H15ZM6 18H3V21H6V18ZM12 18V21H15V18H12ZM12 15V12H9V15H12ZM15 15V18H18V15H15ZM15 6H18V3H15V6ZM12 6H9V9H12V6ZM12 3H15V-1.43051e-06H12V3ZM6 3V-1.43051e-06H3V3H6ZM3 21V0H-3V21H3ZM0 3H15V-3H0V3ZM12 0V3H18V0H12ZM15 6H18V-1.43051e-06H15V6ZM15 3V6H21V3H15ZM18 9H21V3H18V9ZM18 6V15H24V6H18ZM21 12H18V18H21V12ZM15 15V18H21V15H15ZM18 15H15V21H18V15ZM12 18V21H18V18H12ZM15 18H0V24H15V18ZM6 21H12V15H6V21ZM15 18V15H9V18H15ZM12 18H15V12H12V18ZM18 15V6H12V15H18ZM15 3H12V9H15V3ZM15 6V3H9V6H15ZM12 -1.43051e-06H6V6H12V-1.43051e-06ZM3 3V18H9V3H3ZM24 21H21V24H24V21ZM24 6V3H21V6H24ZM27 6V9H30V6H27ZM27 3V-1.43051e-06H24V3H27ZM30 3V6H33V3H30ZM30 0V-3H27V0H30ZM39 0H42V-3H39V0ZM39 3H36V6H39V3ZM42 3H45V-1.43051e-06H42V3ZM42 6H39V9H42V6ZM45 6H48V3H45V6ZM45 21V24H48V21H45ZM39 21H36V24H39V21ZM39 15H42V12H39V15ZM30 15V12H27V15H30ZM30 21V24H33V21H30ZM30 12H27V15H30V12ZM39 12V15H42V12H39ZM39 6H42V3H39V6ZM36 6H33V9H36V6ZM36 3H39V-1.43051e-06H36V3ZM33 3V-1.43051e-06H30V3H33ZM33 6V9H36V6H33ZM30 6V3H27V6H30ZM27 21V6H21V21H27ZM24 9H27V3H24V9ZM30 6V3H24V6H30ZM27 6H30V-1.43051e-06H27V6ZM33 3V0H27V3H33ZM30 3H39V-3H30V3ZM36 0V3H42V0H36ZM39 6H42V-1.43051e-06H39V6ZM39 3V6H45V3H39ZM42 9H45V3H42V9ZM42 6V21H48V6H42ZM45 18H39V24H45V18ZM42 21V15H36V21H42ZM39 12H30V18H39V12ZM27 15V21H33V15H27ZM30 18H24V24H30V18ZM30 15H39V9H30V15ZM42 12V6H36V12H42ZM39 3H36V9H39V3ZM39 6V3H33V6H39ZM36 -1.43051e-06H33V6H36V-1.43051e-06ZM30 3V6H36V3H30ZM33 3H30V9H33V3ZM27 6V12H33V6H27ZM51 21H48V24H51V21ZM51 18V15H48V18H51ZM57 18V21H60V18H57ZM57 3H60V-1.43051e-06H57V3ZM51 3H48V6H51V3ZM51 0V-3H48V0H51ZM69 0H72V-3H69V0ZM69 3V6H72V3H69ZM63 3V-1.43051e-06H60V3H63ZM63 18H60V21H63V18ZM69 18H72V15H69V18ZM69 21V24H72V21H69ZM54 21V18H48V21H54ZM51 21H57V15H51V21ZM60 18V3H54V18H60ZM57 -1.43051e-06H51V6H57V-1.43051e-06ZM54 3V0H48V3H54ZM51 3H69V-3H51V3ZM66 0V3H72V0H66ZM69 -1.43051e-06H63V6H69V-1.43051e-06ZM60 3V18H66V3H60ZM63 21H69V15H63V21ZM66 18V21H72V18H66ZM69 18H51V24H69V18ZM75 21H72V24H75V21ZM75 0V-3H72V0H75ZM81 0H84V-3H81V0ZM81 18H78V21H81V18ZM93 18H96V15H93V18ZM93 21V24H96V21H93ZM78 21V0H72V21H78ZM75 3H81V-3H75V3ZM78 0V18H84V0H78ZM81 21H93V15H81V21ZM90 18V21H96V18H90ZM93 18H75V24H93V18ZM105 21H102V24H105V21ZM105 12H108V9H105V12ZM102 12H99V15H102V12ZM102 9H105V6H102V9ZM99 9H96V12H99V9ZM99 0V-3H96V0H99ZM105 0H108V-3H105V0ZM105 9H102V12H105V9ZM111 9V12H114V9H111ZM111 0V-3H108V0H111ZM117 0H120V-3H117V0ZM117 9V12H120V9H117ZM114 9V6H111V9H114ZM114 12V15H117V12H114ZM111 12V9H108V12H111ZM111 21V24H114V21H111ZM108 21V12H102V21H108ZM105 9H102V15H105V9ZM105 12V9H99V12H105ZM102 6H99V12H102V6ZM102 9V0H96V9H102ZM99 3H105V-3H99V3ZM102 0V9H108V0H102ZM105 12H111V6H105V12ZM114 9V0H108V9H114ZM111 3H117V-3H111V3ZM114 0V9H120V0H114ZM117 6H114V12H117V6ZM111 9V12H117V9H111ZM114 9H111V15H114V9ZM108 12V21H114V12H108ZM111 18H105V24H111V18ZM144 21H141V24H144V21ZM144 0V-3H141V0H144ZM162 0H165V-3H162V0ZM162 3H159V6H162V3ZM165 3H168V-1.43051e-06H165V3ZM165 9V12H168V9H165ZM162 9V6H159V9H162ZM162 12H159V15H162V12ZM165 12H168V9H165V12ZM165 18V21H168V18H165ZM162 18V15H159V18H162ZM162 21V24H165V21H162ZM150 9H147V12H150V9ZM159 9V12H162V9H159ZM159 3H162V-1.43051e-06H159V3ZM150 3V-1.43051e-06H147V3H150ZM150 18H147V21H150V18ZM159 18V21H162V18H159ZM159 12H162V9H159V12ZM150 12V9H147V12H150ZM147 21V0H141V21H147ZM144 3H162V-3H144V3ZM159 0V3H165V0H159ZM162 6H165V-1.43051e-06H162V6ZM162 3V9H168V3H162ZM165 6H162V12H165V6ZM159 9V12H165V9H159ZM162 15H165V9H162V15ZM162 12V18H168V12H162ZM165 15H162V21H165V15ZM159 18V21H165V18H159ZM162 18H144V24H162V18ZM150 12H159V6H150V12ZM162 9V3H156V9H162ZM159 -1.43051e-06H150V6H159V-1.43051e-06ZM147 3V9H153V3H147ZM150 21H159V15H150V21ZM162 18V12H156V18H162ZM159 9H150V15H159V9ZM147 12V18H153V12H147ZM168 21H165V24H168V21ZM168 0V-3H165V0H168ZM186 0H189V-3H186V0ZM186 3H183V6H186V3ZM189 3H192V-1.43051e-06H189V3ZM189 12V15H192V12H189ZM183 12V9H180V12H183ZM183 15H180V18H183V15ZM186 15H189V12H186V15ZM186 18H183V21H186V18ZM189 18H192V15H189V18ZM189 21V24H192V21H189ZM180 21H177V24H180V21ZM180 18H183V15H180V18ZM177 18H174V21H177V18ZM177 15H180V12H177V15ZM174 15V12H171V15H174ZM174 21V24H177V21H174ZM174 12H171V15H174V12ZM180 12V15H183V12H180ZM180 9V6H177V9H180ZM183 9V12H186V9H183ZM183 3H186V-1.43051e-06H183V3ZM174 3V-1.43051e-06H171V3H174ZM171 21V0H165V21H171ZM168 3H186V-3H168V3ZM183 0V3H189V0H183ZM186 6H189V-1.43051e-06H186V6ZM186 3V12H192V3H186ZM189 9H183V15H189V9ZM180 12V15H186V12H180ZM183 18H186V12H183V18ZM183 15V18H189V15H183ZM186 21H189V15H186V21ZM186 18V21H192V18H186ZM189 18H180V24H189V18ZM183 21V18H177V21H183ZM180 15H177V21H180V15ZM180 18V15H174V18H180ZM177 12H174V18H177V12ZM171 15V21H177V15H171ZM174 18H168V24H174V18ZM174 15H180V9H174V15ZM183 12V9H177V12H183ZM180 12H183V6H180V12ZM186 9V3H180V9H186ZM183 -1.43051e-06H174V6H183V-1.43051e-06ZM171 3V12H177V3H171ZM195 21H192V24H195V21ZM195 18H198V15H195V18ZM192 18H189V21H192V18ZM192 0V-3H189V0H192ZM198 0H201V-3H198V0ZM198 18H195V21H198V18ZM207 18V21H210V18H207ZM207 0V-3H204V0H207ZM213 0H216V-3H213V0ZM213 18V21H216V18H213ZM210 18V15H207V18H210ZM210 21V24H213V21H210ZM198 21V18H192V21H198ZM195 15H192V21H195V15ZM195 18V0H189V18H195ZM192 3H198V-3H192V3ZM195 0V18H201V0H195ZM198 21H207V15H198V21ZM210 18V0H204V18H210ZM207 3H213V-3H207V3ZM210 0V18H216V0H210ZM213 15H210V21H213V15ZM207 18V21H213V18H207ZM210 18H195V24H210V18ZM219 21H216V24H219V21ZM219 18V15H216V18H219ZM225 18V21H228V18H225ZM225 3H228V-1.43051e-06H225V3ZM219 3H216V6H219V3ZM219 0V-3H216V0H219ZM237 0H240V-3H237V0ZM237 3V6H240V3H237ZM231 3V-1.43051e-06H228V3H231ZM231 18H228V21H231V18ZM237 18H240V15H237V18ZM237 21V24H240V21H237ZM222 21V18H216V21H222ZM219 21H225V15H219V21ZM228 18V3H222V18H228ZM225 -1.43051e-06H219V6H225V-1.43051e-06ZM222 3V0H216V3H222ZM219 3H237V-3H219V3ZM234 0V3H240V0H234ZM237 -1.43051e-06H231V6H237V-1.43051e-06ZM228 3V18H234V3H228ZM231 21H237V15H231V21ZM234 18V21H240V18H234ZM237 18H219V24H237V18ZM240 21H237V24H240V21ZM240 0V-3H237V0H240ZM246 0H249V-3H246V0ZM246 3H243V6H246V3ZM249 3H252V-1.43051e-06H249V3ZM249 6H246V9H249V6ZM252 6H255V3H252V6ZM252 9H249V12H252V9ZM255 9V12H258V9H255ZM255 0V-3H252V0H255ZM261 0H264V-3H261V0ZM261 21V24H264V21H261ZM255 21H252V24H255V21ZM255 15H258V12H255V15ZM252 15H249V18H252V15ZM252 12H255V9H252V12ZM249 12H246V15H249V12ZM249 9H252V6H249V9ZM246 9V6H243V9H246ZM246 21V24H249V21H246ZM243 21V0H237V21H243ZM240 3H246V-3H240V3ZM243 0V3H249V0H243ZM246 6H249V-1.43051e-06H246V6ZM246 3V6H252V3H246ZM249 9H252V3H249V9ZM249 6V9H255V6H249ZM252 12H255V6H252V12ZM258 9V0H252V9H258ZM255 3H261V-3H255V3ZM258 0V21H264V0H258ZM261 18H255V24H261V18ZM258 21V15H252V21H258ZM255 12H252V18H255V12ZM255 15V12H249V15H255ZM252 9H249V15H252V9ZM252 12V9H246V12H252ZM249 6H246V12H249V6ZM243 9V21H249V9H243ZM246 18H240V24H246V18Z" fill="white"/>
</svg>