<svg width="670" height="46" viewBox="0 0 670 46" fill="none" xmlns="http://www.w3.org/2000/svg">
<path d="M0 45.5V0H39V6.5H45.5V26H32.5V32.5H39V39H45.5V45.5H26V39H19.5V32.5H13V45.5H0ZM13 26H26V19.5H32.5V6.5H13V26ZM58.5 45.5V39H71.5V6.5H58.5V0H97.5V6.5H84.5V39H97.5V45.5H58.5ZM123.5 45.5V39H117V32.5H110.5V26H104V0H117V19.5H123.5V26H130V19.5H136.5V0H149.5V26H143V32.5H136.5V39H130V45.5H123.5ZM156 45.5V13H162.5V6.5H169V0H188.5V6.5H195V13H201.5V45.5H188.5V32.5H169V45.5H156ZM169 26H188.5V13H182V6.5H175.5V13H169V26ZM214.5 45.5V0H227.5V39H253.5V45.5H214.5ZM260 45.5V0H299V6.5H305.5V26H292.5V32.5H299V39H305.5V45.5H286V39H279.5V32.5H273V45.5H260ZM273 26H286V19.5H292.5V6.5H273V26ZM331.5 45.5V26H325V19.5H318.5V0H331.5V19.5H344.5V0H357.5V19.5H351V26H344.5V45.5H331.5ZM422.5 45.5V39H435.5V6.5H422.5V0H461.5V6.5H448.5V39H461.5V45.5H422.5ZM474.5 45.5V39H468V32.5H481V39H500.5V26H474.5V19.5H468V6.5H474.5V0H507V6.5H513.5V13H500.5V6.5H481V19.5H507V26H513.5V39H507V45.5H474.5ZM526.5 45.5V39H520V32.5H533V39H552.5V26H526.5V19.5H520V6.5H526.5V0H559V6.5H565.5V13H552.5V6.5H533V19.5H559V26H565.5V39H559V45.5H526.5ZM578.5 45.5V39H572V0H585V39H604.5V0H617.5V39H611V45.5H578.5ZM624 45.5V0H669.5V6.5H637V19.5H663V26H637V39H669.5V45.5H624Z" fill="black"/>
<path d="M0 45.5H-5V50.5H0V45.5ZM0 0V-5H-5V0H0ZM39 0H44V-5H39V0ZM39 6.5H34V11.5H39V6.5ZM45.5 6.5H50.5V1.5H45.5V6.5ZM45.5 26V31H50.5V26H45.5ZM32.5 26V21H27.5V26H32.5ZM32.5 32.5H27.5V37.5H32.5V32.5ZM39 32.5H44V27.5H39V32.5ZM39 39H34V44H39V39ZM45.5 39H50.5V34H45.5V39ZM45.5 45.5V50.5H50.5V45.5H45.5ZM26 45.5H21V50.5H26V45.5ZM26 39H31V34H26V39ZM19.5 39H14.5V44H19.5V39ZM19.5 32.5H24.5V27.5H19.5V32.5ZM13 32.5V27.5H8V32.5H13ZM13 45.5V50.5H18V45.5H13ZM13 26H8V31H13V26ZM26 26V31H31V26H26ZM26 19.5V14.5H21V19.5H26ZM32.5 19.5V24.5H37.5V19.5H32.5ZM32.5 6.5H37.5V1.5H32.5V6.5ZM13 6.5V1.5H8V6.5H13ZM5 45.5V0H-5V45.5H5ZM0 5H39V-5H0V5ZM34 0V6.5H44V0H34ZM39 11.5H45.5V1.5H39V11.5ZM40.5 6.5V26H50.5V6.5H40.5ZM45.5 21H32.5V31H45.5V21ZM27.5 26V32.5H37.5V26H27.5ZM32.5 37.5H39V27.5H32.5V37.5ZM34 32.5V39H44V32.5H34ZM39 44H45.5V34H39V44ZM40.5 39V45.5H50.5V39H40.5ZM45.5 40.5H26V50.5H45.5V40.5ZM31 45.5V39H21V45.5H31ZM26 34H19.5V44H26V34ZM24.5 39V32.5H14.5V39H24.5ZM19.5 27.5H13V37.5H19.5V27.5ZM8 32.5V45.5H18V32.5H8ZM13 40.5H0V50.5H13V40.5ZM13 31H26V21H13V31ZM31 26V19.5H21V26H31ZM26 24.5H32.5V14.5H26V24.5ZM37.5 19.5V6.5H27.5V19.5H37.5ZM32.5 1.5H13V11.5H32.5V1.5ZM8 6.5V26H18V6.5H8ZM58.5 45.5H53.5V50.5H58.5V45.5ZM58.5 39V34H53.5V39H58.5ZM71.5 39V44H76.5V39H71.5ZM71.5 6.5H76.5V1.5H71.5V6.5ZM58.5 6.5H53.5V11.5H58.5V6.5ZM58.5 0V-5H53.5V0H58.5ZM97.5 0H102.5V-5H97.5V0ZM97.5 6.5V11.5H102.5V6.5H97.5ZM84.5 6.5V1.5H79.5V6.5H84.5ZM84.5 39H79.5V44H84.5V39ZM97.5 39H102.5V34H97.5V39ZM97.5 45.5V50.5H102.5V45.5H97.5ZM63.5 45.5V39H53.5V45.5H63.5ZM58.5 44H71.5V34H58.5V44ZM76.5 39V6.5H66.5V39H76.5ZM71.5 1.5H58.5V11.5H71.5V1.5ZM63.5 6.5V0H53.5V6.5H63.5ZM58.5 5H97.5V-5H58.5V5ZM92.5 0V6.5H102.5V0H92.5ZM97.5 1.5H84.5V11.5H97.5V1.5ZM79.5 6.5V39H89.5V6.5H79.5ZM84.5 44H97.5V34H84.5V44ZM92.5 39V45.5H102.5V39H92.5ZM97.5 40.5H58.5V50.5H97.5V40.5ZM123.5 45.5H118.5V50.5H123.5V45.5ZM123.5 39H128.5V34H123.5V39ZM117 39H112V44H117V39ZM117 32.5H122V27.5H117V32.5ZM110.5 32.5H105.5V37.5H110.5V32.5ZM110.5 26H115.5V21H110.5V26ZM104 26H99V31H104V26ZM104 0V-5H99V0H104ZM117 0H122V-5H117V0ZM117 19.5H112V24.5H117V19.5ZM123.5 19.5H128.5V14.5H123.5V19.5ZM123.5 26H118.5V31H123.5V26ZM130 26V31H135V26H130ZM130 19.5V14.5H125V19.5H130ZM136.5 19.5V24.5H141.5V19.5H136.5ZM136.5 0V-5H131.5V0H136.5ZM149.5 0H154.5V-5H149.5V0ZM149.5 26V31H154.5V26H149.5ZM143 26V21H138V26H143ZM143 32.5V37.5H148V32.5H143ZM136.5 32.5V27.5H131.5V32.5H136.5ZM136.5 39V44H141.5V39H136.5ZM130 39V34H125V39H130ZM130 45.5V50.5H135V45.5H130ZM128.5 45.5V39H118.5V45.5H128.5ZM123.5 34H117V44H123.5V34ZM122 39V32.5H112V39H122ZM117 27.5H110.5V37.5H117V27.5ZM115.5 32.5V26H105.5V32.5H115.5ZM110.5 21H104V31H110.5V21ZM109 26V0H99V26H109ZM104 5H117V-5H104V5ZM112 0V19.5H122V0H112ZM117 24.5H123.5V14.5H117V24.5ZM118.5 19.5V26H128.5V19.5H118.5ZM123.5 31H130V21H123.5V31ZM135 26V19.5H125V26H135ZM130 24.5H136.5V14.5H130V24.5ZM141.5 19.5V0H131.5V19.5H141.5ZM136.5 5H149.5V-5H136.5V5ZM144.5 0V26H154.5V0H144.5ZM149.5 21H143V31H149.5V21ZM138 26V32.5H148V26H138ZM143 27.5H136.5V37.5H143V27.5ZM131.5 32.5V39H141.5V32.5H131.5ZM136.5 34H130V44H136.5V34ZM125 39V45.5H135V39H125ZM130 40.5H123.5V50.5H130V40.5ZM156 45.5H151V50.5H156V45.5ZM156 13V8H151V13H156ZM162.5 13V18H167.5V13H162.5ZM162.5 6.5V1.5H157.5V6.5H162.5ZM169 6.5V11.5H174V6.5H169ZM169 0V-5H164V0H169ZM188.5 0H193.5V-5H188.5V0ZM188.5 6.5H183.5V11.5H188.5V6.5ZM195 6.5H200V1.5H195V6.5ZM195 13H190V18H195V13ZM201.5 13H206.5V8H201.5V13ZM201.5 45.5V50.5H206.5V45.5H201.5ZM188.5 45.5H183.5V50.5H188.5V45.5ZM188.5 32.5H193.5V27.5H188.5V32.5ZM169 32.5V27.5H164V32.5H169ZM169 45.5V50.5H174V45.5H169ZM169 26H164V31H169V26ZM188.5 26V31H193.5V26H188.5ZM188.5 13H193.5V8H188.5V13ZM182 13H177V18H182V13ZM182 6.5H187V1.5H182V6.5ZM175.5 6.5V1.5H170.5V6.5H175.5ZM175.5 13V18H180.5V13H175.5ZM169 13V8H164V13H169ZM161 45.5V13H151V45.5H161ZM156 18H162.5V8H156V18ZM167.5 13V6.5H157.5V13H167.5ZM162.5 11.5H169V1.5H162.5V11.5ZM174 6.5V0H164V6.5H174ZM169 5H188.5V-5H169V5ZM183.5 0V6.5H193.5V0H183.5ZM188.5 11.5H195V1.5H188.5V11.5ZM190 6.5V13H200V6.5H190ZM195 18H201.5V8H195V18ZM196.5 13V45.5H206.5V13H196.5ZM201.5 40.5H188.5V50.5H201.5V40.5ZM193.5 45.5V32.5H183.5V45.5H193.5ZM188.5 27.5H169V37.5H188.5V27.5ZM164 32.5V45.5H174V32.5H164ZM169 40.5H156V50.5H169V40.5ZM169 31H188.5V21H169V31ZM193.5 26V13H183.5V26H193.5ZM188.5 8H182V18H188.5V8ZM187 13V6.5H177V13H187ZM182 1.5H175.5V11.5H182V1.5ZM170.5 6.5V13H180.5V6.5H170.5ZM175.5 8H169V18H175.5V8ZM164 13V26H174V13H164ZM214.5 45.5H209.5V50.5H214.5V45.5ZM214.5 0V-5H209.5V0H214.5ZM227.5 0H232.5V-5H227.5V0ZM227.5 39H222.5V44H227.5V39ZM253.5 39H258.5V34H253.5V39ZM253.5 45.5V50.5H258.5V45.5H253.5ZM219.5 45.5V0H209.5V45.5H219.5ZM214.5 5H227.5V-5H214.5V5ZM222.5 0V39H232.5V0H222.5ZM227.5 44H253.5V34H227.5V44ZM248.5 39V45.5H258.5V39H248.5ZM253.5 40.5H214.5V50.5H253.5V40.5ZM260 45.5H255V50.5H260V45.5ZM260 0V-5H255V0H260ZM299 0H304V-5H299V0ZM299 6.5H294V11.5H299V6.5ZM305.5 6.5H310.5V1.5H305.5V6.5ZM305.5 26V31H310.5V26H305.5ZM292.5 26V21H287.5V26H292.5ZM292.5 32.5H287.5V37.5H292.5V32.5ZM299 32.5H304V27.5H299V32.5ZM299 39H294V44H299V39ZM305.5 39H310.5V34H305.5V39ZM305.5 45.5V50.5H310.5V45.5H305.5ZM286 45.5H281V50.5H286V45.5ZM286 39H291V34H286V39ZM279.5 39H274.5V44H279.5V39ZM279.5 32.5H284.5V27.5H279.5V32.5ZM273 32.5V27.5H268V32.5H273ZM273 45.5V50.5H278V45.5H273ZM273 26H268V31H273V26ZM286 26V31H291V26H286ZM286 19.5V14.5H281V19.5H286ZM292.5 19.5V24.5H297.5V19.5H292.5ZM292.5 6.5H297.5V1.5H292.5V6.5ZM273 6.5V1.5H268V6.5H273ZM265 45.5V0H255V45.5H265ZM260 5H299V-5H260V5ZM294 0V6.5H304V0H294ZM299 11.5H305.5V1.5H299V11.5ZM300.5 6.5V26H310.5V6.5H300.5ZM305.5 21H292.5V31H305.5V21ZM287.5 26V32.5H297.5V26H287.5ZM292.5 37.5H299V27.5H292.5V37.5ZM294 32.5V39H304V32.5H294ZM299 44H305.5V34H299V44ZM300.5 39V45.5H310.5V39H300.5ZM305.5 40.5H286V50.5H305.5V40.5ZM291 45.5V39H281V45.5H291ZM286 34H279.5V44H286V34ZM284.5 39V32.5H274.5V39H284.5ZM279.5 27.5H273V37.5H279.5V27.5ZM268 32.5V45.5H278V32.5H268ZM273 40.5H260V50.5H273V40.5ZM273 31H286V21H273V31ZM291 26V19.5H281V26H291ZM286 24.5H292.5V14.5H286V24.5ZM297.5 19.5V6.5H287.5V19.5H297.5ZM292.5 1.5H273V11.5H292.5V1.5ZM268 6.5V26H278V6.5H268ZM331.5 45.5H326.5V50.5H331.5V45.5ZM331.5 26H336.5V21H331.5V26ZM325 26H320V31H325V26ZM325 19.5H330V14.5H325V19.5ZM318.5 19.5H313.5V24.5H318.5V19.5ZM318.5 0V-5H313.5V0H318.5ZM331.5 0H336.5V-5H331.5V0ZM331.5 19.5H326.5V24.5H331.5V19.5ZM344.5 19.5V24.5H349.5V19.5H344.5ZM344.5 0V-5H339.5V0H344.5ZM357.5 0H362.5V-5H357.5V0ZM357.5 19.5V24.5H362.5V19.5H357.5ZM351 19.5V14.5H346V19.5H351ZM351 26V31H356V26H351ZM344.5 26V21H339.5V26H344.5ZM344.5 45.5V50.5H349.5V45.5H344.5ZM336.5 45.5V26H326.5V45.5H336.5ZM331.5 21H325V31H331.5V21ZM330 26V19.5H320V26H330ZM325 14.5H318.5V24.5H325V14.5ZM323.5 19.5V0H313.5V19.5H323.5ZM318.5 5H331.5V-5H318.5V5ZM326.5 0V19.5H336.5V0H326.5ZM331.5 24.5H344.5V14.5H331.5V24.5ZM349.5 19.5V0H339.5V19.5H349.5ZM344.5 5H357.5V-5H344.5V5ZM352.5 0V19.5H362.5V0H352.5ZM357.5 14.5H351V24.5H357.5V14.5ZM346 19.5V26H356V19.5H346ZM351 21H344.5V31H351V21ZM339.5 26V45.5H349.5V26H339.5ZM344.5 40.5H331.5V50.5H344.5V40.5ZM422.5 45.5H417.5V50.5H422.5V45.5ZM422.5 39V34H417.5V39H422.5ZM435.5 39V44H440.5V39H435.5ZM435.5 6.5H440.5V1.5H435.5V6.5ZM422.5 6.5H417.5V11.5H422.5V6.5ZM422.5 0V-5H417.5V0H422.5ZM461.5 0H466.5V-5H461.5V0ZM461.5 6.5V11.5H466.5V6.5H461.5ZM448.5 6.5V1.5H443.5V6.5H448.5ZM448.5 39H443.5V44H448.5V39ZM461.5 39H466.5V34H461.5V39ZM461.5 45.5V50.5H466.5V45.5H461.5ZM427.5 45.5V39H417.5V45.5H427.5ZM422.5 44H435.5V34H422.5V44ZM440.5 39V6.5H430.5V39H440.5ZM435.5 1.5H422.5V11.5H435.5V1.5ZM427.5 6.5V0H417.5V6.5H427.5ZM422.5 5H461.5V-5H422.5V5ZM456.5 0V6.5H466.5V0H456.5ZM461.5 1.5H448.5V11.5H461.5V1.5ZM443.5 6.5V39H453.5V6.5H443.5ZM448.5 44H461.5V34H448.5V44ZM456.5 39V45.5H466.5V39H456.5ZM461.5 40.5H422.5V50.5H461.5V40.5ZM474.5 45.5H469.5V50.5H474.5V45.5ZM474.5 39H479.5V34H474.5V39ZM468 39H463V44H468V39ZM468 32.5V27.5H463V32.5H468ZM481 32.5H486V27.5H481V32.5ZM481 39H476V44H481V39ZM500.5 39V44H505.5V39H500.5ZM500.5 26H505.5V21H500.5V26ZM474.5 26H469.5V31H474.5V26ZM474.5 19.5H479.5V14.5H474.5V19.5ZM468 19.5H463V24.5H468V19.5ZM468 6.5V1.5H463V6.5H468ZM474.5 6.5V11.5H479.5V6.5H474.5ZM474.5 0V-5H469.5V0H474.5ZM507 0H512V-5H507V0ZM507 6.5H502V11.5H507V6.5ZM513.5 6.5H518.5V1.5H513.5V6.5ZM513.5 13V18H518.5V13H513.5ZM500.5 13H495.5V18H500.5V13ZM500.5 6.5H505.5V1.5H500.5V6.5ZM481 6.5V1.5H476V6.5H481ZM481 19.5H476V24.5H481V19.5ZM507 19.5H512V14.5H507V19.5ZM507 26H502V31H507V26ZM513.5 26H518.5V21H513.5V26ZM513.5 39V44H518.5V39H513.5ZM507 39V34H502V39H507ZM507 45.5V50.5H512V45.5H507ZM479.5 45.5V39H469.5V45.5H479.5ZM474.5 34H468V44H474.5V34ZM473 39V32.5H463V39H473ZM468 37.5H481V27.5H468V37.5ZM476 32.5V39H486V32.5H476ZM481 44H500.5V34H481V44ZM505.5 39V26H495.5V39H505.5ZM500.5 21H474.5V31H500.5V21ZM479.5 26V19.5H469.5V26H479.5ZM474.5 14.5H468V24.5H474.5V14.5ZM473 19.5V6.5H463V19.5H473ZM468 11.5H474.5V1.5H468V11.5ZM479.5 6.5V0H469.5V6.5H479.5ZM474.5 5H507V-5H474.5V5ZM502 0V6.5H512V0H502ZM507 11.5H513.5V1.5H507V11.5ZM508.5 6.5V13H518.5V6.5H508.5ZM513.5 8H500.5V18H513.5V8ZM505.5 13V6.5H495.5V13H505.5ZM500.5 1.5H481V11.5H500.5V1.5ZM476 6.5V19.5H486V6.5H476ZM481 24.5H507V14.5H481V24.5ZM502 19.5V26H512V19.5H502ZM507 31H513.5V21H507V31ZM508.5 26V39H518.5V26H508.5ZM513.5 34H507V44H513.5V34ZM502 39V45.5H512V39H502ZM507 40.5H474.5V50.5H507V40.5ZM526.5 45.5H521.5V50.5H526.5V45.5ZM526.5 39H531.5V34H526.5V39ZM520 39H515V44H520V39ZM520 32.5V27.5H515V32.5H520ZM533 32.5H538V27.5H533V32.5ZM533 39H528V44H533V39ZM552.5 39V44H557.5V39H552.5ZM552.5 26H557.5V21H552.5V26ZM526.5 26H521.5V31H526.5V26ZM526.5 19.5H531.5V14.5H526.5V19.5ZM520 19.5H515V24.5H520V19.5ZM520 6.5V1.5H515V6.5H520ZM526.5 6.5V11.5H531.5V6.5H526.5ZM526.5 0V-5H521.5V0H526.5ZM559 0H564V-5H559V0ZM559 6.5H554V11.5H559V6.5ZM565.5 6.5H570.5V1.5H565.5V6.5ZM565.5 13V18H570.5V13H565.5ZM552.5 13H547.5V18H552.5V13ZM552.5 6.5H557.5V1.5H552.5V6.5ZM533 6.5V1.5H528V6.5H533ZM533 19.5H528V24.5H533V19.5ZM559 19.5H564V14.5H559V19.5ZM559 26H554V31H559V26ZM565.5 26H570.5V21H565.5V26ZM565.5 39V44H570.5V39H565.5ZM559 39V34H554V39H559ZM559 45.5V50.5H564V45.5H559ZM531.5 45.5V39H521.5V45.5H531.5ZM526.5 34H520V44H526.5V34ZM525 39V32.5H515V39H525ZM520 37.5H533V27.5H520V37.5ZM528 32.5V39H538V32.5H528ZM533 44H552.5V34H533V44ZM557.5 39V26H547.5V39H557.5ZM552.5 21H526.5V31H552.5V21ZM531.5 26V19.5H521.5V26H531.5ZM526.5 14.5H520V24.5H526.5V14.5ZM525 19.5V6.5H515V19.5H525ZM520 11.5H526.5V1.5H520V11.5ZM531.5 6.5V0H521.5V6.5H531.5ZM526.5 5H559V-5H526.5V5ZM554 0V6.5H564V0H554ZM559 11.5H565.5V1.5H559V11.5ZM560.5 6.5V13H570.5V6.5H560.5ZM565.5 8H552.5V18H565.5V8ZM557.5 13V6.5H547.5V13H557.5ZM552.5 1.5H533V11.5H552.5V1.5ZM528 6.5V19.5H538V6.5H528ZM533 24.5H559V14.5H533V24.5ZM554 19.5V26H564V19.5H554ZM559 31H565.5V21H559V31ZM560.5 26V39H570.5V26H560.5ZM565.5 34H559V44H565.5V34ZM554 39V45.5H564V39H554ZM559 40.5H526.5V50.5H559V40.5ZM578.5 45.5H573.5V50.5H578.5V45.5ZM578.5 39H583.5V34H578.5V39ZM572 39H567V44H572V39ZM572 0V-5H567V0H572ZM585 0H590V-5H585V0ZM585 39H580V44H585V39ZM604.5 39V44H609.5V39H604.5ZM604.5 0V-5H599.5V0H604.5ZM617.5 0H622.5V-5H617.5V0ZM617.5 39V44H622.5V39H617.5ZM611 39V34H606V39H611ZM611 45.5V50.5H616V45.5H611ZM583.5 45.5V39H573.5V45.5H583.5ZM578.5 34H572V44H578.5V34ZM577 39V0H567V39H577ZM572 5H585V-5H572V5ZM580 0V39H590V0H580ZM585 44H604.5V34H585V44ZM609.5 39V0H599.5V39H609.5ZM604.5 5H617.5V-5H604.5V5ZM612.5 0V39H622.5V0H612.5ZM617.5 34H611V44H617.5V34ZM606 39V45.5H616V39H606ZM611 40.5H578.5V50.5H611V40.5ZM624 45.5H619V50.5H624V45.5ZM624 0V-5H619V0H624ZM669.5 0H674.5V-5H669.5V0ZM669.5 6.5V11.5H674.5V6.5H669.5ZM637 6.5V1.5H632V6.5H637ZM637 19.5H632V24.5H637V19.5ZM663 19.5H668V14.5H663V19.5ZM663 26V31H668V26H663ZM637 26V21H632V26H637ZM637 39H632V44H637V39ZM669.5 39H674.5V34H669.5V39ZM669.5 45.5V50.5H674.5V45.5H669.5ZM629 45.5V0H619V45.5H629ZM624 5H669.5V-5H624V5ZM664.5 0V6.5H674.5V0H664.5ZM669.5 1.5H637V11.5H669.5V1.5ZM632 6.5V19.5H642V6.5H632ZM637 24.5H663V14.5H637V24.5ZM658 19.5V26H668V19.5H658ZM663 21H637V31H663V21ZM632 26V39H642V26H632ZM637 44H669.5V34H637V44ZM664.5 39V45.5H674.5V39H664.5ZM669.5 40.5H624V50.5H669.5V40.5Z" fill="white"/>
</svg>