<svg width="21" height="15" viewBox="0 0 21 15" fill="none" xmlns="http://www.w3.org/2000/svg">
<path d="M0 15V12H3V9H6V6H3V3H0V-1.43051e-06H6V3H9V6H12V3H15V-1.43051e-06H21V3H18V6H15V9H18V12H21V15H15V12H12V9H9V12H6V15H0Z" fill="black"/>
<path d="M0 15H-3V18H0V15ZM0 12V9H-3V12H0ZM3 12V15H6V12H3ZM3 9V6H0V9H3ZM6 9V12H9V9H6ZM6 6H9V3H6V6ZM3 6H0V9H3V6ZM3 3H6V0H3V3ZM0 3H-3V6H0V3ZM0 -1.43051e-06V-3H-3V-1.43051e-06H0ZM6 -1.43051e-06H9V-3H6V-1.43051e-06ZM6 3H3V6H6V3ZM9 3H12V0H9V3ZM9 6H6V9H9V6ZM12 6V9H15V6H12ZM12 3V0H9V3H12ZM15 3V6H18V3H15ZM15 -1.43051e-06V-3H12V-1.43051e-06H15ZM21 -1.43051e-06H24V-3H21V-1.43051e-06ZM21 3V6H24V3H21ZM18 3V0H15V3H18ZM18 6V9H21V6H18ZM15 6V3H12V6H15ZM15 9H12V12H15V9ZM18 9H21V6H18V9ZM18 12H15V15H18V12ZM21 12H24V9H21V12ZM21 15V18H24V15H21ZM15 15H12V18H15V15ZM15 12H18V9H15V12ZM12 12H9V15H12V12ZM12 9H15V6H12V9ZM9 9V6H6V9H9ZM9 12V15H12V12H9ZM6 12V9H3V12H6ZM6 15V18H9V15H6ZM3 15V12H-3V15H3ZM0 15H3V9H0V15ZM6 12V9H0V12H6ZM3 12H6V6H3V12ZM9 9V6H3V9H9ZM6 3H3V9H6V3ZM6 6V3H0V6H6ZM3 0H0V6H3V0ZM3 3V-1.43051e-06H-3V3H3ZM0 3H6V-3H0V3ZM3 -1.43051e-06V3H9V-1.43051e-06H3ZM6 6H9V0H6V6ZM6 3V6H12V3H6ZM9 9H12V3H9V9ZM15 6V3H9V6H15ZM12 6H15V0H12V6ZM18 3V-1.43051e-06H12V3H18ZM15 3H21V-3H15V3ZM18 -1.43051e-06V3H24V-1.43051e-06H18ZM21 0H18V6H21V0ZM15 3V6H21V3H15ZM18 3H15V9H18V3ZM12 6V9H18V6H12ZM15 12H18V6H15V12ZM15 9V12H21V9H15ZM18 15H21V9H18V15ZM18 12V15H24V12H18ZM21 12H15V18H21V12ZM18 15V12H12V15H18ZM15 9H12V15H15V9ZM15 12V9H9V12H15ZM12 6H9V12H12V6ZM6 9V12H12V9H6ZM9 9H6V15H9V9ZM3 12V15H9V12H3ZM6 12H0V18H6V12Z" fill="white"/>
</svg>
